<?xml version="1.0" encoding="UTF-8" standalone="no"?>
<svg
   width="512"
   height="512"
   viewBox="0 0 135.466 135.466"
   version="1.1"
   id="svg6"
   sodipodi:docname="map-tree-13.svg"
   inkscape:version="1.3 (0e150ed6c4, 2023-07-21)"
   xmlns:inkscape="http://www.inkscape.org/namespaces/inkscape"
   xmlns:sodipodi="http://sodipodi.sourceforge.net/DTD/sodipodi-0.dtd"
   xmlns="http://www.w3.org/2000/svg"
   xmlns:svg="http://www.w3.org/2000/svg"
   xmlns:rdf="http://www.w3.org/1999/02/22-rdf-syntax-ns#"
   xmlns:cc="http://creativecommons.org/ns#"
   xmlns:dc="http://purl.org/dc/elements/1.1/">
  <metadata
     id="metadata12">
    <rdf:RDF>
      <cc:Work
         rdf:about="">
        <dc:format>image/svg+xml</dc:format>
        <dc:type
           rdf:resource="http://purl.org/dc/dcmitype/StillImage" />
        <dc:title />
      </cc:Work>
    </rdf:RDF>
  </metadata>
  <defs
     id="defs10">
    <clipPath
       clipPathUnits="userSpaceOnUse"
       id="clipPath2">
      <path
         transform="rotate(150,67.733005,67.733004)"
         d="m 87.260572,51.477832 c 7.244106,8.70245 39.620698,-5.424412 41.543058,5.734183 1.92235,11.158596 -33.314964,8.679969 -37.229454,19.304774 C 87.659687,87.141594 116.08221,108.11712 107.37976,115.36122 98.677307,122.60533 83.205202,90.849603 72.046606,92.771958 60.888011,94.694313 56.933934,129.7967 46.309129,125.88221 35.684325,121.96772 55.449537,92.690621 48.205431,83.988171 40.961325,75.285721 8.584729,89.412583 6.6623739,78.253988 4.7400188,67.095393 39.977338,69.574019 43.891827,58.949214 47.806316,48.32441 19.383797,27.348886 28.086246,20.10478 36.788696,12.860674 52.260802,44.6164 63.419397,42.694045 74.577993,40.77169 78.532069,5.6693041 89.156874,9.5837935 99.781679,13.498283 80.016466,42.775383 87.260572,51.477832 Z"
         inkscape:randomized="0"
         inkscape:rounded="0.27"
         inkscape:flatsided="false"
         sodipodi:arg2="-0.17060112"
         sodipodi:arg1="-0.6941999"
         sodipodi:r2="61.970257"
         sodipodi:r1="25.407804"
         sodipodi:cy="67.733002"
         sodipodi:cx="67.733002"
         sodipodi:sides="6"
         id="path3"
         style="fill:#296d07;fill-opacity:0.88;stroke:none;stroke-width:2.24256;stroke-miterlimit:4;stroke-dasharray:none;stroke-opacity:1"
         sodipodi:type="star" />
    </clipPath>
    <clipPath
       clipPathUnits="userSpaceOnUse"
       id="clipPath19">
      <path
         d="m 86.956853,51.730654 c 7.615192,9.148241 45.375637,-7.204919 47.396467,4.525286 2.02083,11.730204 -39.03494,8.955162 -43.149953,20.124232 -4.115013,11.16907 28.927463,35.693998 19.779223,43.309188 C 101.83435,127.30455 83.70972,90.36169 71.979515,92.382519 60.24931,94.403348 55.53134,135.28143 44.36227,131.16642 33.1932,127.05141 56.124342,92.88359 48.50915,83.735349 40.893958,74.587108 3.1335125,90.940268 1.112683,79.210064 -0.90814651,67.479859 40.147624,70.254901 44.262637,59.085832 48.37765,47.916761 15.335175,23.391836 24.483415,15.776644 33.631656,8.1614523 51.756284,45.104313 63.486488,43.083484 75.216693,41.062655 79.934664,0.1845696 91.103734,4.2995823 102.2728,8.4145949 79.341662,42.582414 86.956853,51.730654 Z"
         inkscape:randomized="0"
         inkscape:rounded="0.25"
         inkscape:flatsided="false"
         sodipodi:arg2="-0.1706011"
         sodipodi:arg1="-0.6941999"
         sodipodi:r2="67.6017"
         sodipodi:r1="25.012629"
         sodipodi:cy="67.733002"
         sodipodi:cx="67.733002"
         sodipodi:sides="6"
         id="path19"
         style="fill:#336d07;fill-opacity:0.88;stroke:none;stroke-width:2.24256;stroke-miterlimit:4;stroke-dasharray:none;stroke-opacity:1"
         sodipodi:type="star" />
    </clipPath>
  </defs>
  <sodipodi:namedview
     pagecolor="#ffffff"
     bordercolor="#666666"
     borderopacity="1"
     objecttolerance="10"
     gridtolerance="10"
     guidetolerance="10"
     inkscape:pageopacity="0"
     inkscape:pageshadow="2"
     inkscape:window-width="2560"
     inkscape:window-height="1560"
     id="namedview8"
     showgrid="true"
     inkscape:zoom="1.3037282"
     inkscape:cx="154.94027"
     inkscape:cy="157.24136"
     inkscape:window-x="-12"
     inkscape:window-y="-12"
     inkscape:window-maximized="1"
     inkscape:current-layer="svg6"
     fit-margin-top="0"
     fit-margin-left="0"
     fit-margin-right="0"
     fit-margin-bottom="0"
     inkscape:snap-nodes="true"
     inkscape:showpageshadow="0"
     inkscape:pagecheckerboard="1"
     inkscape:deskcolor="#505050">
    <inkscape:grid
       type="xygrid"
       id="grid822"
       empspacing="4"
       spacingy="1.0583281"
       spacingx="1.0583281"
       originx="0"
       originy="0"
       units="px"
       visible="true" />
  </sodipodi:namedview>
  <path
     id="path17"
     style="fill:#336d07;fill-opacity:0.88;stroke:none;stroke-width:2.24256;stroke-miterlimit:4;stroke-dasharray:none;stroke-opacity:1"
     d="M 1.2190715 77.173774 C 1.0283731 77.800535 0.98659841 78.477035 1.1129001 79.210172 C 2.6641579 88.214678 25.238502 80.702679 39.107535 80.848684 C 41.603767 77.765219 43.1642 74.776281 42.693974 72.04679 C 42.223768 69.317404 39.753009 67.022553 36.369089 64.952192 C 24.408571 69.341625 3.370569 70.102536 1.2190715 77.173774 z M 36.369089 64.952192 C 40.310415 63.505751 43.306666 61.681347 44.262839 59.086076 C 45.219019 56.490791 44.122675 53.158408 42.061876 49.500593 C 29.960997 47.585901 12.540597 38.283266 9.5835903 46.309246 C 6.6265867 54.335219 25.918487 58.558269 36.369089 64.952192 z M 42.061876 49.500593 C 45.980142 50.12057 49.349311 49.97711 51.477919 48.205211 C 53.606507 46.433328 54.358104 43.146302 54.459144 39.180626 C 43.810583 30.293559 31.505702 9.931031 24.48323 15.776688 C 17.460716 21.622379 35.253829 37.416647 42.061876 49.500593 z M 54.459144 39.180626 C 57.682549 41.870813 60.760958 43.5531 63.486683 43.083524 C 66.212513 42.61393 68.549995 39.998352 70.687456 36.384409 C 66.295334 24.947331 65.641043 5.2103793 57.211941 6.662509 C 48.78271 8.1146608 54.771192 26.933181 54.459144 39.180626 z M 70.687456 36.384409 C 72.109697 40.087923 73.917914 42.93442 76.516826 43.891936 C 79.115771 44.849463 82.338541 43.856608 85.823676 41.961051 C 88.195988 28.295586 99.677469 7.458418 91.103835 4.29964 C 82.530212 1.140866 77.748232 24.446303 70.687456 36.384409 z M 85.823676 41.961051 C 85.105526 46.097884 85.187253 49.604624 86.956842 51.730456 C 88.726345 53.856185 92.16027 54.573136 96.358462 54.617332 C 104.06721 45.095112 120.83348 34.660015 115.36135 28.086271 C 109.88924 21.512545 96.586189 36.107346 85.823676 41.961051 z M 96.358462 54.617332 C 93.862231 57.700797 92.301798 60.689734 92.772023 63.419226 C 93.24223 66.148612 95.712988 68.443463 99.096908 70.513824 C 112.11755 65.735332 135.90436 65.260379 134.3531 56.255844 C 132.80184 47.251338 110.2275 54.763337 96.358462 54.617332 z M 99.096908 70.513824 C 95.155582 71.960265 92.159332 73.784669 91.203158 76.37994 C 90.246979 78.975225 91.343322 82.307608 93.404121 85.965423 C 105.505 87.880115 122.9254 97.18275 125.88241 89.156769 C 128.83941 81.130797 109.54751 76.907747 99.096908 70.513824 z M 93.404121 85.965423 C 89.485855 85.345446 86.116686 85.488906 83.988078 87.260805 C 81.85949 89.032688 81.107894 92.319713 81.006854 96.28539 C 91.655414 105.17246 103.96029 125.53498 110.98277 119.68933 C 118.00528 113.84364 100.21217 98.049369 93.404121 85.965423 z M 81.006854 96.28539 C 77.783448 93.595203 74.705039 91.912916 71.979314 92.382492 C 69.253484 92.852086 66.916002 95.467663 64.778541 99.081606 C 69.170663 110.51868 69.824954 130.25564 78.254056 128.80351 C 86.683287 127.35136 80.694805 108.53284 81.006854 96.28539 z M 64.778541 99.081606 C 63.3563 95.378093 61.548083 92.531596 58.949171 91.57408 C 56.350227 90.616553 53.127456 91.609408 49.642321 93.504965 C 47.27001 107.17043 35.788528 128.0076 44.362162 131.16638 C 52.935785 134.32515 57.717765 111.01971 64.778541 99.081606 z M 49.642321 93.504965 C 50.360471 89.368132 50.278744 85.861392 48.509155 83.73556 C 46.739652 81.609831 43.305727 80.89288 39.107535 80.848684 C 31.398784 90.370904 14.632522 100.806 20.104648 107.37975 C 25.576759 113.95347 38.879808 99.358669 49.642321 93.504965 z "
     transform="matrix(0.22228883,0.96844199,-0.96844199,0.22228883,118.2722,-12.918771)"
     clip-path="url(#clipPath19)" />
  <path
     transform="matrix(-0.67672876,-0.72755095,0.72755095,-0.67672876,64.290666,162.84909)"
     d="m 87.260572,51.477832 c 7.244106,8.70245 39.620698,-5.424412 41.543058,5.734183 1.92235,11.158596 -33.314964,8.679969 -37.229454,19.304774 C 87.659687,87.141594 116.08221,108.11712 107.37976,115.36122 98.677307,122.60533 83.205202,90.849603 72.046606,92.771958 60.888011,94.694313 56.933934,129.7967 46.309129,125.88221 35.684325,121.96772 55.449537,92.690621 48.205431,83.988171 40.961325,75.285721 8.584729,89.412583 6.6623739,78.253988 4.7400188,67.095393 39.977338,69.574019 43.891827,58.949214 47.806316,48.32441 19.383797,27.348886 28.086246,20.10478 36.788696,12.860674 52.260802,44.6164 63.419397,42.694045 74.577993,40.77169 78.532069,5.6693041 89.156874,9.5837935 99.781679,13.498283 80.016466,42.775383 87.260572,51.477832 Z"
     inkscape:randomized="0"
     inkscape:rounded="0.27"
     inkscape:flatsided="false"
     sodipodi:arg2="-0.17060112"
     sodipodi:arg1="-0.6941999"
     sodipodi:r2="61.970257"
     sodipodi:r1="25.407804"
     sodipodi:cy="67.733002"
     sodipodi:cx="67.733002"
     sodipodi:sides="6"
     id="path828-1"
     style="fill:#296d07;fill-opacity:0.88;stroke:none;stroke-width:2.24256;stroke-miterlimit:4;stroke-dasharray:none;stroke-opacity:1"
     sodipodi:type="star" />
  <path
     sodipodi:type="star"
     style="fill:#512f13;fill-opacity:1;stroke:#1b1917;stroke-width:3.48634;stroke-linecap:round;stroke-linejoin:round;stroke-miterlimit:4;stroke-dasharray:none;stroke-opacity:1"
     id="path1206-9"
     sodipodi:sides="12"
     sodipodi:cx="67.733002"
     sodipodi:cy="67.733002"
     sodipodi:r1="13.180267"
     sodipodi:r2="12.521254"
     sodipodi:arg1="0.78539816"
     sodipodi:arg2="1.0471975"
     inkscape:flatsided="false"
     inkscape:rounded="0.35"
     inkscape:randomized="0"
     d="m 77.052858,77.052858 c -0.845851,0.845851 -2.023277,0.92576 -3.059229,1.523867 -1.035952,0.598108 -1.693868,1.577834 -2.849323,1.887437 -1.155454,0.309603 -2.215089,-0.209907 -3.411304,-0.209907 -1.196215,0 -2.25585,0.51951 -3.411304,0.209907 -1.155455,-0.309603 -1.81337,-1.289329 -2.849323,-1.887436 -1.035952,-0.598108 -2.213378,-0.678016 -3.05923,-1.523868 -0.845851,-0.845851 -0.925759,-2.023277 -1.523867,-3.059229 -0.598107,-1.035952 -1.577834,-1.693868 -1.887437,-2.849323 -0.309603,-1.155454 0.209907,-2.215089 0.209907,-3.411304 0,-1.196215 -0.51951,-2.25585 -0.209907,-3.411304 0.309603,-1.155455 1.289329,-1.81337 1.887437,-2.849323 0.598107,-1.035952 0.678016,-2.213378 1.523867,-3.05923 0.845852,-0.845851 2.023277,-0.925759 3.059229,-1.523867 1.035953,-0.598107 1.693869,-1.577834 2.849323,-1.887437 1.155455,-0.309603 2.21509,0.209907 3.411304,0.209907 1.196215,0 2.25585,-0.51951 3.411305,-0.209907 1.155454,0.309603 1.81337,1.289329 2.849322,1.887437 1.035952,0.598107 2.213378,0.678016 3.05923,1.523867 0.845851,0.845852 0.92576,2.023277 1.523867,3.059229 0.598108,1.035953 1.577834,1.693869 1.887437,2.849323 0.309603,1.155455 -0.209907,2.21509 -0.209907,3.411304 0,1.196215 0.51951,2.25585 0.209907,3.411305 -0.309603,1.155454 -1.289329,1.81337 -1.887436,2.849322 -0.598108,1.035952 -0.678016,2.213378 -1.523868,3.05923 z"
     transform="matrix(-0.51553743,0.43143057,-0.44537285,-0.53219775,132.81834,74.558268)" />
</svg>
